HIERARCHY
ROOT Hips
{
	OFFSET 49.844601 2.415166 84.225098
	CHANNELS 6 Xposition Yposition Zposition Xrotation Yrotation Zrotation
	JOINT spine
	{
		OFFSET 0.000000 -0.359108 6.244789
		CHANNELS 3 Xrotation Yrotation Zrotation
		JOINT spine1
		{
			OFFSET 0.000000 -0.000001 9.069412
			CHANNELS 3 Xrotation Yrotation Zrotation
			JOINT spine2
			{
				OFFSET 0.000000 -0.000001 8.690140
				CHANNELS 3 Xrotation Yrotation Zrotation
				JOINT Neck
				{
					OFFSET 0.000000 -1.063724 22.311195
					CHANNELS 3 Xrotation Yrotation Zrotation
					JOINT Head
					{
						OFFSET 0.000000 -0.000001 6.740814
						CHANNELS 3 Xrotation Yrotation Zrotation
						End Site
						{
							OFFSET 0.000000 5.380968 16.316498
						}
					}
				}
				JOINT RightShoulder
				{
					OFFSET -3.659161 0.509513 9.384682
					CHANNELS 3 Xrotation Yrotation Zrotation
					JOINT RightArm
					{
						OFFSET 0.000000 -0.000002 12.308899
						CHANNELS 3 Xrotation Yrotation Zrotation
						JOINT RightArmRoll
						{
							OFFSET 0.000000 -0.000001 6.213745
							CHANNELS 3 Xrotation Yrotation Zrotation
							JOINT RightForeArm
							{
								OFFSET 0.000000 -0.000003 18.098495
								CHANNELS 3 Xrotation Yrotation Zrotation
								JOINT RightForeArmRoll
								{
									OFFSET 0.000000 -0.000001 6.972794
									CHANNELS 3 Xrotation Yrotation Zrotation
									JOINT RightHand
									{
										OFFSET 0.000000 -0.000002 13.992905
										CHANNELS 3 Xrotation Yrotation Zrotation
										End Site
										{
											OFFSET 0.000000 0.000000 0.100006
										}
									}
								}
							}
						}
					}
				}
				JOINT LeftShoulder
				{
					OFFSET 3.659161 0.509513 9.384682
					CHANNELS 3 Xrotation Yrotation Zrotation
					JOINT LeftArm
					{
						OFFSET 0.000000 -0.000002 12.308899
						CHANNELS 3 Xrotation Yrotation Zrotation
						JOINT LeftArmRoll
						{
							OFFSET 0.000000 -0.000001 6.213745
							CHANNELS 3 Xrotation Yrotation Zrotation
							JOINT LeftForeArm
							{
								OFFSET 0.000000 -0.000003 18.098495
								CHANNELS 3 Xrotation Yrotation Zrotation
								JOINT LeftForeArmRoll
								{
									OFFSET 0.000000 -0.000001 6.972794
									CHANNELS 3 Xrotation Yrotation Zrotation
									JOINT LeftHand
									{
										OFFSET 0.000000 -0.000002 13.992905
										CHANNELS 3 Xrotation Yrotation Zrotation
										End Site
										{
											OFFSET 0.000000 0.000000 0.100006
										}
									}
								}
							}
						}
					}
				}
			}
		}
	}
	JOINT RightUpLeg
	{
		OFFSET -5.535149 0.851454 -1.014999
		CHANNELS 3 Xrotation Yrotation Zrotation
		JOINT RightUpLegRoll
		{
			OFFSET 0.000000 -0.000003 16.407501
			CHANNELS 3 Xrotation Yrotation Zrotation
			JOINT RightLeg
			{
				OFFSET 0.000000 0.000003 -20.318100
				CHANNELS 3 Xrotation Yrotation Zrotation
				JOINT RightLegRoll
				{
					OFFSET 0.000000 -0.000003 20.384598
					CHANNELS 3 Xrotation Yrotation Zrotation
					JOINT RightFoot
					{
						OFFSET 0.000000 -0.000003 16.966797
						CHANNELS 3 Xrotation Yrotation Zrotation
						JOINT RightToeBase
						{
							OFFSET 0.000000 -0.000002 14.183395
							CHANNELS 3 Xrotation Yrotation Zrotation
							End Site
							{
								OFFSET 0.006012 0.791745 6.868896
							}
						}
					}
				}
			}
		}
	}
	JOINT LeftUpLeg
	{
		OFFSET 5.535149 0.851454 -1.014999
		CHANNELS 3 Xrotation Yrotation Zrotation
		JOINT LeftUpLegRoll
		{
			OFFSET 0.000000 -0.000003 16.407600
			CHANNELS 3 Xrotation Yrotation Zrotation
			JOINT LeftLeg
			{
				OFFSET 0.000000 -0.000003 20.318100
				CHANNELS 3 Xrotation Yrotation Zrotation
				JOINT LeftLegRoll
				{
					OFFSET 0.000000 -0.000003 20.573097
					CHANNELS 3 Xrotation Yrotation Zrotation
					JOINT LeftFoot
					{
						OFFSET 0.000000 -0.000003 16.778305
						CHANNELS 3 Xrotation Yrotation Zrotation
						JOINT LeftToeBase
						{
							OFFSET 0.000000 -0.000002 14.183395
							CHANNELS 3 Xrotation Yrotation Zrotation
							End Site
							{
								OFFSET -0.026943 0.791745 6.868896
							}
						}
					}
				}
			}
		}
	}
}
MOTION
Frames: 13
Frame Time: 0.041667
46.827599 4.071895 83.918198 1.879584 -0.426051 -2.559088 -1.631792 0.112303 -0.025327 0.739274 0.224964 -0.037882 2.384348 0.224492 -0.040574 12.210194 -1.854801 0.715467 -3.082662 1.373830 0.835183 -4.243038 -69.042421 -5.888290 -6.423749 -106.714138 7.857210 0.000001 0.000008 0.000008 13.409902 -8.287148 0.262981 0.000004 -0.000019 -2.999999 -5.000183 -7.998923 0.000127 -12.072469 60.801442 14.306939 3.486572 113.850238 -20.831570 0.000001 -0.000011 -0.000009 18.148072 3.840494 -0.082058 0.000000 -0.000012 3.000000 -5.000241 7.999591 -0.000074 -7.058643 -176.966131 1.015766 -179.999991 0.000005 -0.927002 166.204676 -2.108430 -1.137567 -0.000006 0.000003 0.205108 72.876425 6.363216 3.357371 25.465216 -7.353629 0.000230 -1.112737 177.250512 -1.966786 -0.000005 -0.000004 -1.065100 -12.500475 0.901312 0.907623 -0.000003 -0.000001 -0.499016 76.731766 -6.695293 -2.097589 25.802991 7.343337 -0.498731 
46.817001 4.080336 83.916397 1.911360 -0.423535 -2.556906 -1.636461 0.112162 -0.025562 0.729940 0.224689 -0.038525 2.375008 0.224209 -0.041213 12.222187 -1.866701 0.715316 -3.103149 1.384627 0.835677 -4.241834 -69.053281 -5.887800 -6.591536 -106.737511 7.682914 0.000001 0.000009 0.000007 13.412758 -8.282026 0.261608 0.000004 -0.000019 -3.000000 -5.000183 -7.998922 0.000127 -12.071197 60.782639 14.304518 3.487099 113.890304 -20.775171 0.000000 -0.000011 -0.000011 18.235816 3.873031 -0.088996 -0.000001 -0.000012 3.000003 -5.000243 7.999588 -0.000076 -7.090193 -176.971294 1.006782 -179.999991 0.000005 -0.927002 166.209375 -2.108473 -1.137392 -0.000006 0.000003 0.205082 72.872333 6.363716 3.356177 25.465213 -7.353628 0.000229 -1.164669 177.246565 -1.961624 -0.000005 -0.000004 -1.065080 -12.532283 0.903032 0.908552 -0.000003 -0.000000 -0.499069 76.736834 -6.695344 -2.097594 25.804806 7.343333 -0.502655 
46.817101 4.085165 83.911896 1.944380 -0.420894 -2.554791 -1.641413 0.111999 -0.025811 0.720038 0.224369 -0.039209 2.365108 0.223882 -0.041893 12.234581 -1.879064 0.715478 -3.123718 1.395983 0.836492 -4.241524 -69.064715 -5.888343 -6.758312 -106.760993 7.510210 0.000002 0.000008 0.000008 13.414994 -8.276497 0.260113 0.000002 -0.000019 -3.000002 -5.000183 -7.998922 0.000127 -12.069528 60.763446 14.301614 3.490806 113.931428 -20.721349 0.000000 -0.000012 -0.000008 18.324691 3.906329 -0.096178 0.000001 -0.000012 3.000001 -5.000243 7.999590 -0.000075 -7.123031 -176.977455 0.997719 -179.999991 0.000005 -0.927002 166.214784 -2.108521 -1.137194 -0.000007 0.000003 0.205042 72.867737 6.364296 3.354626 25.465215 -7.353629 0.000230 -1.217878 177.241633 -1.956511 -0.000005 -0.000004 -1.065040 -12.563594 0.905101 0.909488 -0.000002 -0.000001 -0.499049 76.741588 -6.695408 -2.097621 25.806529 7.343328 -0.506422 
46.820999 4.088301 83.918190 1.978264 -0.418165 -2.552737 -1.646561 0.111820 -0.026070 0.709739 0.224020 -0.039924 2.354808 0.223524 -0.042604 12.247279 -1.891747 0.715856 -3.144371 1.407728 0.837536 -4.241807 -69.076428 -5.889561 -6.924265 -106.784605 7.338938 0.000001 0.000008 0.000008 13.416813 -8.270689 0.258543 0.000005 -0.000020 -3.000002 -5.000183 -7.998922 0.000129 -12.067617 60.744096 14.298413 3.496841 113.972621 -20.669648 0.000000 -0.000011 -0.000010 18.414393 3.940161 -0.103572 0.000001 -0.000012 3.000001 -5.000240 7.999591 -0.000071 -7.156745 -176.983643 0.988538 -179.999991 0.000005 -0.927002 166.220481 -2.109541 -1.137222 -0.000004 0.000003 0.204994 72.862614 6.364927 3.353014 25.465213 -7.353629 0.000228 -1.271972 177.236688 -1.951447 -0.000005 -0.000004 -1.065010 -12.594508 0.907415 0.910429 -0.000004 -0.000000 -0.498980 76.746205 -6.695422 -2.097647 25.808037 7.343336 -0.510073 
46.818802 4.092088 83.910896 2.012642 -0.415384 -2.550703 -1.651824 0.111632 -0.026334 0.699213 0.223653 -0.040655 2.344287 0.223148 -0.043331 12.260178 -1.904612 0.716364 -3.165042 1.419712 0.838716 -4.242424 -69.088443 -5.891188 -7.089514 -106.808340 7.168670 0.000002 0.000008 0.000010 13.418325 -8.264715 0.256905 0.000004 -0.000019 -3.000000 -5.000184 -7.998924 0.000128 -12.065566 60.724651 14.295034 3.504315 114.012844 -20.619086 0.000001 -0.000012 -0.000009 18.504516 3.974284 -0.111132 0.000001 -0.000013 3.000003 -5.000243 7.999591 -0.000075 -7.190985 -176.989818 0.979286 -179.999991 0.000005 -0.927002 166.226382 -2.109594 -1.137004 -0.000005 0.000003 0.204941 72.857300 6.365597 3.351316 25.465213 -7.353629 0.000230 -1.326575 177.231743 -1.946410 -0.000005 -0.000004 -1.064960 -12.625220 0.909869 0.911373 -0.000004 -0.000001 -0.498882 76.750624 -6.695501 -2.097596 25.809557 7.343334 -0.513680 
46.814301 4.099775 83.913200 2.047153 -0.412590 -2.548682 -1.657113 0.111441 -0.026600 0.688629 0.223282 -0.041391 2.333697 0.222768 -0.044063 12.273082 -1.917526 0.716907 -3.185734 1.431744 0.839935 -4.243125 -69.100443 -5.892907 -7.254283 -106.832198 6.999004 0.000001 0.000009 0.000009 13.419836 -8.258714 0.255270 0.000003 -0.000020 -3.000001 -5.000183 -7.998922 0.000129 -12.063464 60.705109 14.291587 3.511985 114.054057 -20.568761 0.000000 -0.000012 -0.000011 18.594854 4.008472 -0.118820 -0.000000 -0.000012 3.000001 -5.000241 7.999590 -0.000075 -7.225344 -176.997003 0.970142 -179.999991 0.000006 -0.927002 166.232379 -2.110630 -1.137025 -0.000005 0.000003 0.204887 72.851979 6.366265 3.349519 25.465213 -7.353628 0.000229 -1.381303 177.226812 -1.941366 -0.000005 -0.000004 -1.064920 -12.655832 0.912357 0.912321 -0.000003 -0.000001 -0.498776 76.755036 -6.695559 -2.097640 25.811073 7.343330 -0.517257 
46.813099 4.104105 83.910690 2.081412 -0.409817 -2.546656 -1.662352 0.111256 -0.026863 0.678160 0.222920 -0.042118 2.323228 0.222398 -0.044786 12.285878 -1.930351 0.717395 -3.206410 1.443667 0.841100 -4.243670 -69.112362 -5.894444 -7.418769 -106.856199 6.829440 0.000002 0.000008 0.000008 13.421451 -8.252778 0.253652 0.000003 -0.000019 -3.000000 -5.000184 -7.998925 0.000128 -12.061445 60.685671 14.288241 3.518964 114.095271 -20.517716 0.000000 -0.000012 -0.000010 18.684910 4.042485 -0.126585 0.000000 -0.000012 2.999999 -5.000244 7.999590 -0.000074 -7.259449 -177.003164 0.960922 -179.999991 0.000005 -0.927002 166.238267 -2.111652 -1.137044 -0.000005 0.000003 0.204835 72.846665 6.366932 3.347923 25.465215 -7.353629 0.000229 -1.435783 177.221880 -1.936296 -0.000005 -0.000004 -1.064870 -12.686543 0.914775 0.913270 -0.000003 -0.000000 -0.498685 76.759551 -6.695618 -2.097480 25.812687 7.343322 -0.520887 
46.814999 4.106364 83.908981 2.115055 -0.407103 -2.544595 -1.667444 0.111082 -0.027120 0.667974 0.222580 -0.042825 2.313047 0.222050 -0.045488 12.298480 -1.942942 0.717734 -3.227043 1.455300 0.842116 -4.243765 -69.123973 -5.895458 -7.583072 -106.880330 6.659791 0.000001 0.000008 0.000008 13.423374 -8.247055 0.252103 0.000005 -0.000020 -2.999999 -5.000183 -7.998925 0.000128 -12.059641 60.666396 14.285161 3.524418 114.135446 -20.465489 0.000000 -0.000011 -0.000008 18.774467 4.076102 -0.134373 0.000002 -0.000012 3.000001 -5.000240 7.999590 -0.000075 -7.292927 -177.009338 0.951802 -179.999991 0.000005 -0.927002 166.243881 -2.111702 -1.137835 -0.000005 0.000003 0.204789 72.841755 6.367552 3.346296 25.465218 -7.353628 0.000229 -1.489624 177.216949 -1.931186 -0.000005 -0.000004 -1.064840 -12.717555 0.917016 0.914221 -0.000004 -0.000001 -0.498630 76.764196 -6.695672 -2.097511 25.814201 7.343328 -0.524568 
46.815800 4.110224 83.908897 2.147696 -0.404485 -2.542491 -1.672314 0.110925 -0.027365 0.658243 0.222275 -0.043497 2.303318 0.221737 -0.046157 12.310779 -1.955171 0.717837 -3.247593 1.466482 0.842887 -4.243194 -69.135216 -5.895690 -7.747399 -106.904618 6.489550 0.000002 0.000008 0.000007 13.425818 -8.241645 0.250637 0.000004 -0.000020 -3.000001 -5.000185 -7.998924 0.000128 -12.058096 60.647319 14.282405 3.527059 114.176570 -20.410767 0.000000 -0.000011 -0.000010 18.863123 4.109090 -0.142136 0.000002 -0.000012 2.999998 -5.000241 7.999590 -0.000075 -7.325372 -177.015513 0.942845 -179.999991 0.000005 -0.927002 166.249072 -2.111750 -1.137643 -0.000006 0.000003 0.204754 72.837253 6.368125 3.344841 25.465213 -7.353628 0.000229 -1.542451 177.213015 -1.926033 -0.000005 -0.000004 -1.064810 -12.749067 0.918975 0.915173 -0.000003 -0.000000 -0.498632 76.769045 -6.695710 -2.097527 25.815919 7.343321 -0.528385 
46.817699 4.110873 83.906792 2.178984 -0.402000 -2.540305 -1.676862 0.110793 -0.027595 0.649137 0.222020 -0.044123 2.294207 0.221473 -0.046780 12.322572 -1.966886 0.717607 -3.268038 1.477045 0.843319 -4.241658 -69.145973 -5.894814 -7.911949 -106.929063 6.318236 0.000002 0.000009 0.000007 13.428981 -8.236680 0.249314 0.000004 -0.000019 -3.000001 -5.000182 -7.998922 0.000128 -12.056985 60.628604 14.280168 3.526228 114.216582 -20.353100 0.000001 -0.000011 -0.000008 18.950467 4.141212 -0.149818 0.000000 -0.000012 3.000000 -5.000242 7.999591 -0.000075 -7.356407 -177.020676 0.933978 -179.999991 0.000005 -0.927002 166.253580 -2.111790 -1.137478 -0.000005 0.000003 0.204733 72.833381 6.368639 3.343537 25.465215 -7.353629 0.000229 -1.593876 177.209080 -1.920792 -0.000005 -0.000005 -1.064790 -12.781079 0.920548 0.916119 -0.000004 -0.000000 -0.498714 76.774236 -6.695745 -2.097624 25.817838 7.343322 -0.532367 
46.817001 4.116485 83.906502 2.208534 -0.399684 -2.538026 -1.681022 0.110692 -0.027805 0.640827 0.221825 -0.044689 2.285897 0.221272 -0.047344 12.333764 -1.977968 0.716952 -3.288360 1.486819 0.843316 -4.238901 -69.155966 -5.892517 -8.076396 -106.954643 6.146200 0.000001 0.000008 0.000010 13.432976 -8.232279 0.248147 0.000005 -0.000019 -3.000001 -5.000183 -7.998924 0.000128 -12.056401 60.610341 14.278585 3.520647 114.257515 -20.291372 0.000000 -0.000011 -0.000009 19.036191 4.172231 -0.157367 0.000001 -0.000012 3.000000 -5.000239 7.999589 -0.000074 -7.385646 -177.026837 0.925519 -179.999991 0.000005 -0.927002 166.257282 -2.111824 -1.137341 -0.000005 0.000003 0.204730 72.830410 6.369003 3.342662 25.465216 -7.353628 0.000228 -1.643531 177.205146 -1.915439 -0.000005 -0.000004 -1.064790 -12.813887 0.921627 0.917061 -0.000002 -0.000001 -0.498896 76.779871 -6.695766 -2.097592 25.819857 7.343324 -0.536565 
46.809799 4.118464 83.906303 2.235973 -0.397574 -2.535627 -1.684692 0.110628 -0.027993 0.633482 0.221705 -0.045184 2.278557 0.221146 -0.047837 12.344148 -1.988265 0.715778 -3.308510 1.495634 0.842781 -4.234676 -69.165091 -5.888512 -8.241370 -106.980413 5.972385 0.000001 0.000008 0.000007 13.438105 -8.228549 0.247194 0.000003 -0.000020 -3.000002 -5.000182 -7.998925 0.000128 -12.056444 60.592630 14.277776 3.509493 114.298305 -20.224877 -0.000000 -0.000011 -0.000011 19.119988 4.201933 -0.164722 0.000000 -0.000012 3.000003 -5.000240 7.999590 -0.000074 -7.412710 -177.032957 0.917388 -179.999991 0.000005 -0.927002 166.260000 -2.110880 -1.137004 -0.000005 0.000003 0.204749 72.828388 6.369324 3.341826 25.465216 -7.353628 0.000229 -1.691022 177.202209 -1.909975 -0.000005 -0.000004 -1.064800 -12.847594 0.922110 0.917996 -0.000004 -0.000000 -0.499200 76.786032 -6.695743 -2.097724 25.822082 7.343323 -0.541004 
46.812199 4.120884 83.906395 2.260935 -0.395706 -2.533097 -1.687793 0.110610 -0.028152 0.627274 0.221673 -0.045592 2.272347 0.221109 -0.048245 12.353726 -1.997648 0.713995 -3.328479 1.503311 0.841619 -4.228688 -69.173144 -5.882477 -8.407050 -107.006354 5.796542 0.000001 0.000008 0.000007 13.444575 -8.225624 0.246489 0.000004 -0.000019 -3.000000 -5.000184 -7.998922 0.000127 -12.057211 60.575466 14.277851 3.491916 114.337954 -20.152950 0.000000 -0.000012 -0.000010 19.201562 4.230084 -0.171815 0.000001 -0.000012 2.999998 -5.000241 7.999591 -0.000075 -7.437232 -177.038093 0.909514 -179.999991 0.000005 -0.927002 166.261599 -2.109911 -1.137716 -0.000005 0.000003 0.204792 72.827575 6.369445 3.341493 25.465218 -7.353628 0.000228 -1.735979 177.200283 -1.904390 -0.000005 -0.000004 -1.064840 -12.882398 0.921890 0.918922 -0.000003 -0.000001 -0.499648 76.792855 -6.695658 -2.097911 25.824602 7.343322 -0.545760 
